<svg width="82" height="22" viewBox="0 0 82 22" fill="none" xmlns="http://www.w3.org/2000/svg">
<path d="M5.12989 17.4001H11.8499V21.3601H-0.000107341V0.300107H5.12989V17.4001ZM24.2568 21.5701C22.2768 21.5701 20.4568 21.1101 18.7968 20.1901C17.1568 19.2701 15.8468 17.9901 14.8668 16.3501C13.9068 14.6901 13.4268 12.8301 13.4268 10.7701C13.4268 8.71011 13.9068 6.86011 14.8668 5.22011C15.8468 3.58011 17.1568 2.30011 18.7968 1.38011C20.4568 0.460107 22.2768 0.00010705 24.2568 0.00010705C26.2368 0.00010705 28.0468 0.460107 29.6868 1.38011C31.3468 2.30011 32.6468 3.58011 33.5868 5.22011C34.5468 6.86011 35.0268 8.71011 35.0268 10.7701C35.0268 12.8301 34.5468 14.6901 33.5868 16.3501C32.6268 17.9901 31.3268 19.2701 29.6868 20.1901C28.0468 21.1101 26.2368 21.5701 24.2568 21.5701ZM24.2568 16.8901C25.9368 16.8901 27.2768 16.3301 28.2768 15.2101C29.2968 14.0901 29.8068 12.6101 29.8068 10.7701C29.8068 8.91011 29.2968 7.43011 28.2768 6.33011C27.2768 5.21011 25.9368 4.65011 24.2568 4.65011C22.5568 4.65011 21.1968 5.20011 20.1768 6.30011C19.1768 7.40011 18.6768 8.89011 18.6768 10.7701C18.6768 12.6301 19.1768 14.1201 20.1768 15.2401C21.1968 16.3401 22.5568 16.8901 24.2568 16.8901ZM51.8608 6.96011C51.4808 6.26011 50.9308 5.73011 50.2108 5.37011C49.5108 4.99011 48.6808 4.80011 47.7208 4.80011C46.0608 4.80011 44.7308 5.35011 43.7308 6.45011C42.7308 7.53011 42.2308 8.98011 42.2308 10.8001C42.2308 12.7401 42.7508 14.2601 43.7908 15.3601C44.8508 16.4401 46.3008 16.9801 48.1408 16.9801C49.4008 16.9801 50.4608 16.6601 51.3208 16.0201C52.2008 15.3801 52.8408 14.4601 53.2408 13.2601H46.7308V9.48011H57.8908V14.2501C57.5108 15.5301 56.8608 16.7201 55.9408 17.8201C55.0408 18.9201 53.8908 19.8101 52.4908 20.4901C51.0908 21.1701 49.5108 21.5101 47.7508 21.5101C45.6708 21.5101 43.8108 21.0601 42.1708 20.1601C40.5508 19.2401 39.2808 17.9701 38.3608 16.3501C37.4608 14.7301 37.0108 12.8801 37.0108 10.8001C37.0108 8.72011 37.4608 6.87011 38.3608 5.25011C39.2808 3.61011 40.5508 2.34011 42.1708 1.44011C43.7908 0.520106 45.6408 0.0601063 47.7208 0.0601063C50.2408 0.0601063 52.3608 0.670106 54.0808 1.89011C55.8208 3.11011 56.9708 4.80011 57.5308 6.96011H51.8608ZM70.6923 21.5701C68.7123 21.5701 66.8923 21.1101 65.2323 20.1901C63.5923 19.2701 62.2823 17.9901 61.3023 16.3501C60.3423 14.6901 59.8623 12.8301 59.8623 10.7701C59.8623 8.71011 60.3423 6.86011 61.3023 5.22011C62.2823 3.58011 63.5923 2.30011 65.2323 1.38011C66.8923 0.460107 68.7123 0.00010705 70.6923 0.00010705C72.6723 0.00010705 74.4823 0.460107 76.1223 1.38011C77.7823 2.30011 79.0823 3.58011 80.0223 5.22011C80.9823 6.86011 81.4623 8.71011 81.4623 10.7701C81.4623 12.8301 80.9823 14.6901 80.0223 16.3501C79.0623 17.9901 77.7623 19.2701 76.1223 20.1901C74.4823 21.1101 72.6723 21.5701 70.6923 21.5701ZM70.6923 16.8901C72.3723 16.8901 73.7123 16.3301 74.7123 15.2101C75.7323 14.0901 76.2423 12.6101 76.2423 10.7701C76.2423 8.91011 75.7323 7.43011 74.7123 6.33011C73.7123 5.21011 72.3723 4.65011 70.6923 4.65011C68.9923 4.65011 67.6323 5.20011 66.6123 6.30011C65.6123 7.40011 65.1123 8.89011 65.1123 10.7701C65.1123 12.6301 65.6123 14.1201 66.6123 15.2401C67.6323 16.3401 68.9923 16.8901 70.6923 16.8901Z" fill="white"/>
</svg>
