<svg width="85" height="45" viewBox="0 0 85 45" fill="none" xmlns="http://www.w3.org/2000/svg">
<path d="M6.99 29.04H13.71V33H1.86V11.94H6.99V29.04ZM26.1169 33.21C24.1369 33.21 22.3169 32.75 20.6569 31.83C19.0169 30.91 17.7069 29.63 16.7269 27.99C15.7669 26.33 15.2869 24.47 15.2869 22.41C15.2869 20.35 15.7669 18.5 16.7269 16.86C17.7069 15.22 19.0169 13.94 20.6569 13.02C22.3169 12.1 24.1369 11.64 26.1169 11.64C28.0969 11.64 29.9069 12.1 31.5469 13.02C33.2069 13.94 34.5069 15.22 35.4469 16.86C36.4069 18.5 36.8869 20.35 36.8869 22.41C36.8869 24.47 36.4069 26.33 35.4469 27.99C34.4869 29.63 33.1869 30.91 31.5469 31.83C29.9069 32.75 28.0969 33.21 26.1169 33.21ZM26.1169 28.53C27.7969 28.53 29.1369 27.97 30.1369 26.85C31.1569 25.73 31.6669 24.25 31.6669 22.41C31.6669 20.55 31.1569 19.07 30.1369 17.97C29.1369 16.85 27.7969 16.29 26.1169 16.29C24.4169 16.29 23.0569 16.84 22.0369 17.94C21.0369 19.04 20.5369 20.53 20.5369 22.41C20.5369 24.27 21.0369 25.76 22.0369 26.88C23.0569 27.98 24.4169 28.53 26.1169 28.53ZM53.7209 18.6C53.3409 17.9 52.7909 17.37 52.0709 17.01C51.3709 16.63 50.5409 16.44 49.5809 16.44C47.9209 16.44 46.5909 16.99 45.5909 18.09C44.5909 19.17 44.0909 20.62 44.0909 22.44C44.0909 24.38 44.6109 25.9 45.6509 27C46.7109 28.08 48.1609 28.62 50.0009 28.62C51.2609 28.62 52.3209 28.3 53.1809 27.66C54.0609 27.02 54.7009 26.1 55.1009 24.9H48.5909V21.12H59.7509V25.89C59.3709 27.17 58.7209 28.36 57.8009 29.46C56.9009 30.56 55.7509 31.45 54.3509 32.13C52.9509 32.81 51.3709 33.15 49.6109 33.15C47.5309 33.15 45.6709 32.7 44.0309 31.8C42.4109 30.88 41.1409 29.61 40.2209 27.99C39.3209 26.37 38.8709 24.52 38.8709 22.44C38.8709 20.36 39.3209 18.51 40.2209 16.89C41.1409 15.25 42.4109 13.98 44.0309 13.08C45.6509 12.16 47.5009 11.7 49.5809 11.7C52.1009 11.7 54.2209 12.31 55.9409 13.53C57.6809 14.75 58.8309 16.44 59.3909 18.6H53.7209ZM72.5524 33.21C70.5724 33.21 68.7524 32.75 67.0924 31.83C65.4524 30.91 64.1424 29.63 63.1624 27.99C62.2024 26.33 61.7224 24.47 61.7224 22.41C61.7224 20.35 62.2024 18.5 63.1624 16.86C64.1424 15.22 65.4524 13.94 67.0924 13.02C68.7524 12.1 70.5724 11.64 72.5524 11.64C74.5324 11.64 76.3424 12.1 77.9824 13.02C79.6424 13.94 80.9424 15.22 81.8824 16.86C82.8424 18.5 83.3224 20.35 83.3224 22.41C83.3224 24.47 82.8424 26.33 81.8824 27.99C80.9224 29.63 79.6224 30.91 77.9824 31.83C76.3424 32.75 74.5324 33.21 72.5524 33.21ZM72.5524 28.53C74.2324 28.53 75.5724 27.97 76.5724 26.85C77.5924 25.73 78.1024 24.25 78.1024 22.41C78.1024 20.55 77.5924 19.07 76.5724 17.97C75.5724 16.85 74.2324 16.29 72.5524 16.29C70.8524 16.29 69.4924 16.84 68.4724 17.94C67.4724 19.04 66.9724 20.53 66.9724 22.41C66.9724 24.27 67.4724 25.76 68.4724 26.88C69.4924 27.98 70.8524 28.53 72.5524 28.53Z" fill="white"/>
</svg>
